<mxfile host="app.diagrams.net" modified="2023-10-17T17:51:42.058Z" agent="Mozilla/5.0 (Windows NT 10.0; Win64; x64) AppleWebKit/537.36 (KHTML, like Gecko) Chrome/117.0.0.0 Safari/537.36" etag="k8maRfttiYIjX0aB3HJv" version="22.0.0" type="device">
  <diagram name="PÃ¡gina-1" id="mx46_KJ1Uyf_bisMGjRc">
    <mxGraphModel dx="1290" dy="566" grid="1" gridSize="10" guides="1" tooltips="1" connect="1" arrows="1" fold="1" page="1" pageScale="1" pageWidth="827" pageHeight="1169" math="0" shadow="0">
      <root>
        <mxCell id="0" />
        <mxCell id="1" parent="0" />
        <mxCell id="lyK7kGOJIjBINNhHarWs-1" value="" style="rounded=0;whiteSpace=wrap;html=1;fillColor=#FFFF66;" vertex="1" parent="1">
          <mxGeometry x="30" y="110" width="300" height="360" as="geometry" />
        </mxCell>
        <mxCell id="lyK7kGOJIjBINNhHarWs-2" value="NpsDB" style="text;html=1;strokeColor=none;fillColor=none;align=center;verticalAlign=middle;whiteSpace=wrap;rounded=0;" vertex="1" parent="1">
          <mxGeometry x="30" y="110" width="60" height="30" as="geometry" />
        </mxCell>
        <mxCell id="lyK7kGOJIjBINNhHarWs-3" value="nps" style="rounded=0;whiteSpace=wrap;html=1;fillColor=#66FFFF;" vertex="1" parent="1">
          <mxGeometry x="80" y="160" width="120" height="60" as="geometry" />
        </mxCell>
        <mxCell id="lyK7kGOJIjBINNhHarWs-4" value="audit_table" style="rounded=0;whiteSpace=wrap;html=1;fillColor=#66FFFF;" vertex="1" parent="1">
          <mxGeometry x="80" y="370" width="120" height="60" as="geometry" />
        </mxCell>
        <mxCell id="lyK7kGOJIjBINNhHarWs-6" value="" style="endArrow=classic;html=1;rounded=0;exitX=0.25;exitY=1;exitDx=0;exitDy=0;entryX=0.25;entryY=0;entryDx=0;entryDy=0;" edge="1" parent="1" source="lyK7kGOJIjBINNhHarWs-3" target="lyK7kGOJIjBINNhHarWs-4">
          <mxGeometry width="50" height="50" relative="1" as="geometry">
            <mxPoint x="230" y="300" as="sourcePoint" />
            <mxPoint x="280" y="250" as="targetPoint" />
          </mxGeometry>
        </mxCell>
        <mxCell id="lyK7kGOJIjBINNhHarWs-7" value="" style="endArrow=classic;html=1;rounded=0;exitX=0.75;exitY=1;exitDx=0;exitDy=0;entryX=0.75;entryY=0;entryDx=0;entryDy=0;" edge="1" parent="1" source="lyK7kGOJIjBINNhHarWs-3" target="lyK7kGOJIjBINNhHarWs-4">
          <mxGeometry width="50" height="50" relative="1" as="geometry">
            <mxPoint x="120" y="230" as="sourcePoint" />
            <mxPoint x="120" y="380" as="targetPoint" />
          </mxGeometry>
        </mxCell>
        <mxCell id="lyK7kGOJIjBINNhHarWs-8" value="id_nps" style="text;html=1;strokeColor=none;fillColor=none;align=center;verticalAlign=middle;whiteSpace=wrap;rounded=0;" vertex="1" parent="1">
          <mxGeometry x="200" y="160" width="60" height="30" as="geometry" />
        </mxCell>
        <mxCell id="lyK7kGOJIjBINNhHarWs-9" value="id_nps" style="text;html=1;strokeColor=none;fillColor=none;align=center;verticalAlign=middle;whiteSpace=wrap;rounded=0;" vertex="1" parent="1">
          <mxGeometry x="200" y="370" width="60" height="30" as="geometry" />
        </mxCell>
        <mxCell id="lyK7kGOJIjBINNhHarWs-10" value="upserts in the audit table creates auditID with id_nps registery" style="text;html=1;strokeColor=none;fillColor=none;align=center;verticalAlign=middle;whiteSpace=wrap;rounded=0;" vertex="1" parent="1">
          <mxGeometry x="170" y="260" width="130" height="60" as="geometry" />
        </mxCell>
        <mxCell id="lyK7kGOJIjBINNhHarWs-11" value="auditID+" style="text;html=1;strokeColor=none;fillColor=none;align=center;verticalAlign=middle;whiteSpace=wrap;rounded=0;" vertex="1" parent="1">
          <mxGeometry x="200" y="400" width="60" height="30" as="geometry" />
        </mxCell>
        <mxCell id="lyK7kGOJIjBINNhHarWs-12" value="" style="rounded=0;whiteSpace=wrap;html=1;fillColor=#FFFF66;" vertex="1" parent="1">
          <mxGeometry x="690" y="110" width="330" height="360" as="geometry" />
        </mxCell>
        <mxCell id="lyK7kGOJIjBINNhHarWs-13" value="AzureDB" style="text;html=1;strokeColor=none;fillColor=none;align=center;verticalAlign=middle;whiteSpace=wrap;rounded=0;" vertex="1" parent="1">
          <mxGeometry x="690" y="110" width="60" height="30" as="geometry" />
        </mxCell>
        <mxCell id="lyK7kGOJIjBINNhHarWs-14" value="nfo_success_run" style="rounded=0;whiteSpace=wrap;html=1;fillColor=#33FFFF;" vertex="1" parent="1">
          <mxGeometry x="710" y="260" width="120" height="60" as="geometry" />
        </mxCell>
        <mxCell id="lyK7kGOJIjBINNhHarWs-15" value="Datapipeline_nps_EMAILNPS" style="rounded=0;whiteSpace=wrap;html=1;fillColor=#FFB366;" vertex="1" parent="1">
          <mxGeometry x="405" y="210" width="180" height="170" as="geometry" />
        </mxCell>
        <mxCell id="lyK7kGOJIjBINNhHarWs-16" value="" style="endArrow=classic;html=1;rounded=0;exitX=0;exitY=0.75;exitDx=0;exitDy=0;entryX=0.992;entryY=0.565;entryDx=0;entryDy=0;entryPerimeter=0;" edge="1" parent="1" source="lyK7kGOJIjBINNhHarWs-14" target="lyK7kGOJIjBINNhHarWs-15">
          <mxGeometry width="50" height="50" relative="1" as="geometry">
            <mxPoint x="580" y="340" as="sourcePoint" />
            <mxPoint x="650" y="160" as="targetPoint" />
          </mxGeometry>
        </mxCell>
        <mxCell id="lyK7kGOJIjBINNhHarWs-17" value="Reads last auditID recorded" style="text;html=1;strokeColor=none;fillColor=none;align=center;verticalAlign=middle;whiteSpace=wrap;rounded=0;" vertex="1" parent="1">
          <mxGeometry x="600" y="310" width="100" height="30" as="geometry" />
        </mxCell>
        <mxCell id="lyK7kGOJIjBINNhHarWs-19" value="writes last auditID processed" style="text;html=1;strokeColor=none;fillColor=none;align=center;verticalAlign=middle;whiteSpace=wrap;rounded=0;" vertex="1" parent="1">
          <mxGeometry x="600" y="240" width="100" height="30" as="geometry" />
        </mxCell>
        <mxCell id="lyK7kGOJIjBINNhHarWs-20" value="" style="endArrow=classic;html=1;rounded=0;entryX=0;entryY=0.25;entryDx=0;entryDy=0;exitX=1.001;exitY=0.372;exitDx=0;exitDy=0;exitPerimeter=0;" edge="1" parent="1" source="lyK7kGOJIjBINNhHarWs-15" target="lyK7kGOJIjBINNhHarWs-14">
          <mxGeometry width="50" height="50" relative="1" as="geometry">
            <mxPoint x="590" y="320" as="sourcePoint" />
            <mxPoint x="720" y="315" as="targetPoint" />
          </mxGeometry>
        </mxCell>
        <mxCell id="lyK7kGOJIjBINNhHarWs-21" value="" style="endArrow=classic;html=1;rounded=0;exitX=0;exitY=0.75;exitDx=0;exitDy=0;entryX=1;entryY=0.5;entryDx=0;entryDy=0;" edge="1" parent="1" source="lyK7kGOJIjBINNhHarWs-15" target="lyK7kGOJIjBINNhHarWs-11">
          <mxGeometry width="50" height="50" relative="1" as="geometry">
            <mxPoint x="460" y="395" as="sourcePoint" />
            <mxPoint x="330" y="400" as="targetPoint" />
          </mxGeometry>
        </mxCell>
        <mxCell id="lyK7kGOJIjBINNhHarWs-22" value="Looks for every id_nps affected by the upsert audit" style="text;html=1;strokeColor=none;fillColor=none;align=center;verticalAlign=middle;whiteSpace=wrap;rounded=0;" vertex="1" parent="1">
          <mxGeometry x="310" y="390" width="160" height="30" as="geometry" />
        </mxCell>
        <mxCell id="lyK7kGOJIjBINNhHarWs-24" value="" style="curved=1;endArrow=classic;html=1;rounded=0;exitX=1;exitY=0.5;exitDx=0;exitDy=0;entryX=1;entryY=0.5;entryDx=0;entryDy=0;" edge="1" parent="1" source="lyK7kGOJIjBINNhHarWs-11" target="lyK7kGOJIjBINNhHarWs-8">
          <mxGeometry width="50" height="50" relative="1" as="geometry">
            <mxPoint x="450" y="340" as="sourcePoint" />
            <mxPoint x="500" y="290" as="targetPoint" />
            <Array as="points">
              <mxPoint x="310" y="330" />
              <mxPoint x="310" y="230" />
            </Array>
          </mxGeometry>
        </mxCell>
        <mxCell id="lyK7kGOJIjBINNhHarWs-25" value="Extracts selected data to upsert" style="text;html=1;strokeColor=none;fillColor=none;align=center;verticalAlign=middle;whiteSpace=wrap;rounded=0;" vertex="1" parent="1">
          <mxGeometry x="290" y="175" width="160" height="30" as="geometry" />
        </mxCell>
        <mxCell id="lyK7kGOJIjBINNhHarWs-26" value="" style="endArrow=classic;html=1;rounded=0;entryX=0;entryY=0.25;entryDx=0;entryDy=0;exitX=1;exitY=0.5;exitDx=0;exitDy=0;" edge="1" parent="1" source="lyK7kGOJIjBINNhHarWs-8" target="lyK7kGOJIjBINNhHarWs-15">
          <mxGeometry width="50" height="50" relative="1" as="geometry">
            <mxPoint x="460" y="170" as="sourcePoint" />
            <mxPoint x="590" y="175" as="targetPoint" />
          </mxGeometry>
        </mxCell>
        <mxCell id="lyK7kGOJIjBINNhHarWs-29" value="emails_nps_millennium" style="rounded=0;whiteSpace=wrap;html=1;fillColor=#33FFFF;" vertex="1" parent="1">
          <mxGeometry x="800" y="160" width="150" height="60" as="geometry" />
        </mxCell>
        <mxCell id="lyK7kGOJIjBINNhHarWs-30" value="respostas_nps_millennium" style="rounded=0;whiteSpace=wrap;html=1;fillColor=#33FFFF;" vertex="1" parent="1">
          <mxGeometry x="800" y="355" width="150" height="60" as="geometry" />
        </mxCell>
        <mxCell id="lyK7kGOJIjBINNhHarWs-31" value="" style="endArrow=classic;html=1;rounded=0;entryX=0;entryY=0.5;entryDx=0;entryDy=0;exitX=1.006;exitY=0.127;exitDx=0;exitDy=0;exitPerimeter=0;" edge="1" parent="1" source="lyK7kGOJIjBINNhHarWs-15" target="lyK7kGOJIjBINNhHarWs-29">
          <mxGeometry width="50" height="50" relative="1" as="geometry">
            <mxPoint x="270" y="185" as="sourcePoint" />
            <mxPoint x="415" y="263" as="targetPoint" />
          </mxGeometry>
        </mxCell>
        <mxCell id="lyK7kGOJIjBINNhHarWs-32" value="" style="endArrow=classic;html=1;rounded=0;entryX=0;entryY=0.5;entryDx=0;entryDy=0;exitX=0.992;exitY=0.838;exitDx=0;exitDy=0;exitPerimeter=0;" edge="1" parent="1" source="lyK7kGOJIjBINNhHarWs-15" target="lyK7kGOJIjBINNhHarWs-30">
          <mxGeometry width="50" height="50" relative="1" as="geometry">
            <mxPoint x="596" y="390" as="sourcePoint" />
            <mxPoint x="810" y="348" as="targetPoint" />
          </mxGeometry>
        </mxCell>
        <mxCell id="lyK7kGOJIjBINNhHarWs-33" value="id_nps" style="text;html=1;strokeColor=none;fillColor=none;align=center;verticalAlign=middle;whiteSpace=wrap;rounded=0;" vertex="1" parent="1">
          <mxGeometry x="950" y="160" width="60" height="30" as="geometry" />
        </mxCell>
        <mxCell id="lyK7kGOJIjBINNhHarWs-34" value="id_nps" style="text;html=1;strokeColor=none;fillColor=none;align=center;verticalAlign=middle;whiteSpace=wrap;rounded=0;" vertex="1" parent="1">
          <mxGeometry x="950" y="355" width="60" height="30" as="geometry" />
        </mxCell>
        <mxCell id="lyK7kGOJIjBINNhHarWs-35" value="Records splitted data to tables" style="text;html=1;strokeColor=none;fillColor=none;align=center;verticalAlign=middle;whiteSpace=wrap;rounded=0;" vertex="1" parent="1">
          <mxGeometry x="610" y="175" width="115" height="30" as="geometry" />
        </mxCell>
        <mxCell id="lyK7kGOJIjBINNhHarWs-36" value="Records splitted data to tables" style="text;html=1;strokeColor=none;fillColor=none;align=center;verticalAlign=middle;whiteSpace=wrap;rounded=0;" vertex="1" parent="1">
          <mxGeometry x="610" y="385" width="115" height="30" as="geometry" />
        </mxCell>
        <mxCell id="lyK7kGOJIjBINNhHarWs-37" value="pedidoV" style="text;html=1;strokeColor=none;fillColor=none;align=center;verticalAlign=middle;whiteSpace=wrap;rounded=0;" vertex="1" parent="1">
          <mxGeometry x="950" y="190" width="60" height="30" as="geometry" />
        </mxCell>
        <mxCell id="lyK7kGOJIjBINNhHarWs-38" value="- PedidoV does nothing, but is needed as identity in PB" style="text;html=1;strokeColor=none;fillColor=none;align=center;verticalAlign=middle;whiteSpace=wrap;rounded=0;" vertex="1" parent="1">
          <mxGeometry x="850" y="230" width="170" height="30" as="geometry" />
        </mxCell>
      </root>
    </mxGraphModel>
  </diagram>
</mxfile>
